<svg width="204" height="55" viewBox="0 0 204 55" fill="none" xmlns="http://www.w3.org/2000/svg">
<path d="M81.008 38.182C79.8293 38.182 78.7893 37.9653 77.888 37.532C76.9867 37.0813 76.2847 36.4053 75.782 35.504C75.2793 34.5853 75.028 33.4327 75.028 32.046V24.116H78.278V31.604C78.278 32.852 78.5553 33.788 79.11 34.412C79.682 35.0187 80.488 35.322 81.528 35.322C82.2907 35.322 82.9493 35.166 83.504 34.854C84.076 34.542 84.518 34.074 84.83 33.45C85.1593 32.826 85.324 32.0547 85.324 31.136V24.116H88.574V38H85.48V34.256L86.026 35.4C85.558 36.3013 84.8733 36.9947 83.972 37.48C83.0707 37.948 82.0827 38.182 81.008 38.182ZM92.8293 38V24.116H96.0793V38H92.8293ZM94.4673 21.828C93.8606 21.828 93.3579 21.6373 92.9593 21.256C92.5779 20.8747 92.3873 20.4153 92.3873 19.878C92.3873 19.3233 92.5779 18.864 92.9593 18.5C93.3579 18.1187 93.8606 17.928 94.4673 17.928C95.0739 17.928 95.5679 18.11 95.9493 18.474C96.3479 18.8207 96.5473 19.2627 96.5473 19.8C96.5473 20.372 96.3566 20.8573 95.9753 21.256C95.5939 21.6373 95.0913 21.828 94.4673 21.828ZM99.2009 38V35.946L107.755 25.598L108.353 26.716H99.3569V24.116H110.953V26.17L102.399 36.518L101.749 35.4H111.187V38H99.2009ZM114.495 38V19.8H117.277L125.233 33.086H123.777L131.603 19.8H134.385L134.411 38H131.213L131.187 24.818H131.863L125.207 35.92H123.699L116.939 24.818H117.719V38H114.495ZM147.569 38V35.192L147.387 34.594V29.68C147.387 28.7267 147.101 27.99 146.529 27.47C145.957 26.9327 145.09 26.664 143.929 26.664C143.149 26.664 142.377 26.7853 141.615 27.028C140.869 27.2707 140.237 27.6087 139.717 28.042L138.443 25.676C139.188 25.104 140.072 24.6793 141.095 24.402C142.135 24.1073 143.209 23.96 144.319 23.96C146.329 23.96 147.881 24.4453 148.973 25.416C150.082 26.3693 150.637 27.8513 150.637 29.862V38H147.569ZM143.201 38.182C142.161 38.182 141.251 38.0087 140.471 37.662C139.691 37.298 139.084 36.804 138.651 36.18C138.235 35.5387 138.027 34.8193 138.027 34.022C138.027 33.242 138.209 32.54 138.573 31.916C138.954 31.292 139.569 30.798 140.419 30.434C141.268 30.07 142.395 29.888 143.799 29.888H147.829V32.046H144.033C142.923 32.046 142.178 32.228 141.797 32.592C141.415 32.9387 141.225 33.372 141.225 33.892C141.225 34.4813 141.459 34.9493 141.927 35.296C142.395 35.6427 143.045 35.816 143.877 35.816C144.674 35.816 145.385 35.634 146.009 35.27C146.65 34.906 147.109 34.3687 147.387 33.658L147.933 35.608C147.621 36.4227 147.057 37.0553 146.243 37.506C145.445 37.9567 144.431 38.182 143.201 38.182ZM159.098 38.182C157.936 38.182 156.818 38.0347 155.744 37.74C154.686 37.428 153.846 37.0553 153.222 36.622L154.47 34.152C155.094 34.5507 155.839 34.88 156.706 35.14C157.572 35.4 158.439 35.53 159.306 35.53C160.328 35.53 161.065 35.3913 161.516 35.114C161.984 34.8367 162.218 34.464 162.218 33.996C162.218 33.6147 162.062 33.3287 161.75 33.138C161.438 32.93 161.03 32.774 160.528 32.67C160.025 32.566 159.462 32.4707 158.838 32.384C158.231 32.2973 157.616 32.1847 156.992 32.046C156.385 31.89 155.83 31.6733 155.328 31.396C154.825 31.1013 154.418 30.7113 154.106 30.226C153.794 29.7407 153.638 29.0993 153.638 28.302C153.638 27.418 153.889 26.6553 154.392 26.014C154.894 25.3553 155.596 24.8527 156.498 24.506C157.416 24.142 158.5 23.96 159.748 23.96C160.684 23.96 161.628 24.064 162.582 24.272C163.535 24.48 164.324 24.7747 164.948 25.156L163.7 27.626C163.041 27.2273 162.374 26.9587 161.698 26.82C161.039 26.664 160.38 26.586 159.722 26.586C158.734 26.586 157.997 26.7333 157.512 27.028C157.044 27.3227 156.81 27.6953 156.81 28.146C156.81 28.562 156.966 28.874 157.278 29.082C157.59 29.29 157.997 29.4547 158.5 29.576C159.002 29.6973 159.557 29.8013 160.164 29.888C160.788 29.9573 161.403 30.07 162.01 30.226C162.616 30.382 163.171 30.5987 163.674 30.876C164.194 31.136 164.61 31.5087 164.922 31.994C165.234 32.4793 165.39 33.112 165.39 33.892C165.39 34.7587 165.13 35.5127 164.61 36.154C164.107 36.7953 163.388 37.298 162.452 37.662C161.516 38.0087 160.398 38.182 159.098 38.182ZM173.415 38.182C171.889 38.182 170.711 37.792 169.879 37.012C169.047 36.2147 168.631 35.0447 168.631 33.502V21.048H171.881V33.424C171.881 34.0827 172.045 34.594 172.375 34.958C172.721 35.322 173.198 35.504 173.805 35.504C174.533 35.504 175.139 35.3133 175.625 34.932L176.535 37.246C176.153 37.558 175.685 37.792 175.131 37.948C174.576 38.104 174.004 38.182 173.415 38.182ZM166.343 26.82V24.22H175.599V26.82H166.343ZM185.277 38.182C183.734 38.182 182.382 37.8787 181.221 37.272C180.077 36.648 179.184 35.7987 178.543 34.724C177.919 33.6493 177.607 32.4273 177.607 31.058C177.607 29.6713 177.91 28.4493 178.517 27.392C179.141 26.3173 179.99 25.4767 181.065 24.87C182.157 24.2633 183.396 23.96 184.783 23.96C186.135 23.96 187.34 24.2547 188.397 24.844C189.454 25.4333 190.286 26.2653 190.893 27.34C191.5 28.4147 191.803 29.68 191.803 31.136C191.803 31.2747 191.794 31.4307 191.777 31.604C191.777 31.7773 191.768 31.942 191.751 32.098H180.181V29.94H190.035L188.761 30.616C188.778 29.8187 188.614 29.1167 188.267 28.51C187.92 27.9033 187.444 27.4267 186.837 27.08C186.248 26.7333 185.563 26.56 184.783 26.56C183.986 26.56 183.284 26.7333 182.677 27.08C182.088 27.4267 181.62 27.912 181.273 28.536C180.944 29.1427 180.779 29.862 180.779 30.694V31.214C180.779 32.046 180.97 32.7827 181.351 33.424C181.732 34.0653 182.27 34.5593 182.963 34.906C183.656 35.2527 184.454 35.426 185.355 35.426C186.135 35.426 186.837 35.3047 187.461 35.062C188.085 34.8193 188.64 34.438 189.125 33.918L190.867 35.92C190.243 36.648 189.454 37.2113 188.501 37.61C187.565 37.9913 186.49 38.182 185.277 38.182ZM194.925 38V24.116H198.019V27.938L197.655 26.82C198.071 25.884 198.721 25.1733 199.605 24.688C200.506 24.2027 201.624 23.96 202.959 23.96V27.054C202.82 27.0193 202.69 27.002 202.569 27.002C202.448 26.9847 202.326 26.976 202.205 26.976C200.974 26.976 199.995 27.34 199.267 28.068C198.539 28.7787 198.175 29.8447 198.175 31.266V38H194.925Z" fill="#6B8BDD"/>
<path d="M25.8227 28.6286L27.4654 29.6281C29.4623 30.8431 31.7548 31.4857 34.0923 31.4857V31.4857C36.8996 31.4857 39.6283 30.5592 41.8552 28.8499L42.1435 28.6286" stroke="#6B8BDD" stroke-width="3"/>
<path d="M20.3252 23.8857V22.6272C20.3252 21.7268 20.5394 20.8393 20.9503 20.038L20.9671 20.0051C21.373 19.2134 21.9642 18.5315 22.6903 18.0173V18.0173C23.1345 17.7027 23.6228 17.4555 24.1393 17.2838L24.318 17.2243C24.8216 17.0568 25.3488 16.9714 25.8795 16.9714V16.9714C26.4855 16.9714 27.0863 17.0828 27.6521 17.2999L28.0133 17.4385C28.1941 17.5079 28.3679 17.5945 28.5323 17.697V17.697C28.9711 17.9706 29.3328 18.3518 29.583 18.8044L29.7754 19.1524C30.0022 19.5626 30.1646 20.0054 30.2567 20.4651L30.362 20.9904C30.4661 21.5098 30.5185 22.0383 30.5185 22.568V23.8857" stroke="#6B8BDD" stroke-width="3"/>
<path d="M37.0468 23.8857V22.6272C37.0468 21.7268 37.2611 20.8393 37.6719 20.038L37.6888 20.0051C38.0947 19.2134 38.6859 18.5315 39.412 18.0173V18.0173C39.8562 17.7027 40.3445 17.4555 40.861 17.2838L41.0397 17.2243C41.5432 17.0568 42.0705 16.9714 42.6011 16.9714V16.9714C43.2072 16.9714 43.808 17.0828 44.3738 17.2999L44.735 17.4385C44.9158 17.5079 45.0896 17.5945 45.2539 17.697V17.697C45.6928 17.9706 46.0544 18.3518 46.3047 18.8044L46.497 19.1524C46.7239 19.5626 46.8862 20.0054 46.9784 20.4651L47.0837 20.9904C47.1878 21.5098 47.2402 22.0383 47.2402 22.568V23.8857" stroke="#6B8BDD" stroke-width="3"/>
<path d="M28.5844 3.78337L26.7894 5.73728C26.5432 6.00527 26.1234 6.01439 25.8659 5.75735C25.8371 5.72871 25.8058 5.70285 25.7722 5.68014L25.0912 5.21983C24.411 4.76001 23.6087 4.51429 22.7876 4.51429C21.9555 4.51429 21.1311 4.67447 20.3596 4.9861L19.1226 5.48571L18.2864 5.93768C17.9298 6.13042 17.6056 6.3779 17.3258 6.67112L17.1963 6.80682C16.8076 7.21402 16.534 7.71706 16.4034 8.26459L16.3654 8.42378C16.3329 8.55984 16.3165 8.69923 16.3165 8.83911V9.59778C16.3165 10.1671 15.855 10.6286 15.2857 10.6286H14.2758C13.6538 10.6286 13.0345 10.7106 12.4339 10.8726L12.2281 10.9281C11.5612 11.108 10.9312 11.404 10.3671 11.8027L10.2969 11.8523C9.99683 12.0644 9.72061 12.3085 9.47312 12.5801C8.9642 13.1387 8.5862 13.8038 8.36661 14.5268L8.3547 14.5661C8.20404 15.0622 8.12747 15.5778 8.12747 16.0963V16.8167C8.12747 16.9954 8.14943 17.1733 8.19285 17.3467L8.69101 19.335C8.78289 19.7017 8.50554 20.0571 8.12747 20.0571H7.58891C6.55511 20.0571 5.541 20.3399 4.65639 20.8749L4.63545 20.8876C4.2921 21.0952 3.97275 21.3402 3.68321 21.618C2.9932 22.28 2.48643 23.1232 2.22001 24.0416C2.07522 24.5407 2 25.0638 2 25.5835V26.1349C2 26.7658 2.08703 27.3936 2.25862 28.0007L2.31739 28.2086C2.52373 28.9386 2.87188 29.6207 3.34196 30.2161C3.85392 30.8645 4.49906 31.3954 5.23382 31.7731L6.00863 32.1714L6.34031 32.3056C7.37402 32.7238 7.95847 33.8236 7.72661 34.9143C7.36776 36.1676 7.64377 37.5171 8.46587 38.5288L8.56399 38.6496C8.76862 38.9014 9.00118 39.1292 9.25719 39.3286L9.45652 39.4839C10.5993 40.3739 12.0064 40.8571 13.4548 40.8571H13.7395C15.3037 40.8571 16.7182 41.7869 17.3384 43.2228L17.4147 43.3993C17.6348 43.909 17.9536 44.3702 18.3526 44.7563L18.3726 44.7756C19.1842 45.5609 20.2694 46 21.3988 46H21.6995H21.9841C23.3296 46 24.6451 45.6024 25.7654 44.8571L26.7416 44.1753C27.1876 43.8637 27.7803 43.8622 28.2279 44.1714L29.2889 44.9451C29.5731 45.1524 29.8308 45.3937 30.0563 45.6636C30.5825 46.2937 31.278 46.7602 32.0607 47.0078L32.3982 47.1146C32.9362 47.2848 33.4972 47.3714 34.0615 47.3714H34.6166C35.355 47.3714 36.0898 47.2676 36.7993 47.0631C37.7945 46.7762 38.7233 46.296 39.5328 45.6498L40.0247 45.2571L41.2849 44.3014C41.3984 44.2154 41.4963 44.1106 41.5744 43.9916C42.0478 43.2706 43.092 43.2345 43.614 43.9211L43.6384 43.9533C43.7477 44.0971 43.8863 44.2161 44.0449 44.3024L44.3802 44.4849C44.829 44.7292 45.3318 44.8571 45.8427 44.8571H46.0888C46.5849 44.8571 47.0824 44.7633 47.5452 44.5845C48.2393 44.3164 48.8562 43.8614 49.3137 43.2745L50.0872 42.2821C50.174 42.1708 50.2453 42.0481 50.299 41.9174L50.5797 41.2348C50.8505 40.5761 51.6911 40.3828 52.2224 40.8571L53.5968 42.1143L54.1104 42.4987C54.6819 42.9264 55.3056 43.2794 55.9665 43.5492L56.2923 43.6822C57.0838 44.0053 57.9305 44.1714 58.7854 44.1714H59.2161C59.5154 44.1714 59.8132 44.1316 60.102 44.053L60.1856 44.0303C61.0581 43.7928 61.7882 43.1951 62.1933 42.3867C62.4149 41.9445 62.5303 41.4568 62.5303 40.9622V39.3594C62.5303 39.2154 62.5449 39.0718 62.5739 38.9308L62.6973 38.3304C62.8596 37.5408 63.6188 37.0221 64.4134 37.1581C64.7857 37.2217 65.1684 37.1421 65.4843 36.9352L66.8252 36.0571C67.7129 35.3559 68.3249 34.364 68.5535 33.2561L68.6005 33.0286L69.077 31.602C69.3303 30.8437 69.4595 30.0495 69.4595 29.2501V29.0202C69.4595 28.1587 69.2831 27.3063 68.9412 26.5155L68.8546 26.3152C68.4271 25.3263 67.7222 24.4824 66.8252 23.8857L65.2731 22.8209C65.087 22.6933 64.8845 22.5915 64.671 22.5185L64.4079 22.4285C63.5588 22.138 62.9884 21.3399 62.9884 20.4426C62.9884 20.1878 62.942 19.935 62.8514 19.6968L62.5651 18.9436C62.4276 18.582 62.2571 18.2338 62.0556 17.9036L61.9228 17.6858C61.6802 17.2881 61.3786 16.9293 61.0285 16.6219C60.4361 16.1017 59.7203 15.742 58.9494 15.5772L58.0176 15.3779C57.8197 15.3356 57.6179 15.3143 57.4155 15.3143H56.5501C55.814 15.3143 55.1623 14.8388 54.9375 14.138C54.8839 13.9708 54.8566 13.7963 54.8566 13.6208V13.2833C54.8566 12.5569 54.6512 11.8453 54.264 11.2306L54.1531 11.0546C53.7869 10.4733 53.2944 9.982 52.7122 9.61722L52.1693 9.27703C51.484 8.84764 50.7327 8.53385 49.9456 8.34821L48.8779 8.09638C48.2844 7.95641 47.6767 7.88571 47.0669 7.88571H45.584C44.4443 7.88571 43.3512 7.4336 42.5444 6.62857L40.9749 4.93967C40.0853 3.98231 38.9942 3.23441 37.7804 2.74994C37.1031 2.47959 36.3949 2.29421 35.672 2.19803L34.1835 2H33.0594C31.8122 2 30.5916 2.36117 29.5452 3.03988L29.1969 3.26577C28.9717 3.41181 28.7659 3.58573 28.5844 3.78337Z" stroke="#6B8BDD" stroke-width="3"/>
<path d="M48.4428 43.8286L52.3942 46.8571L55.553 49.9059C55.7696 50.1149 55.9096 50.3907 55.9505 50.6889L56.1425 52.09C56.2372 52.7812 57.1262 53.0039 57.5356 52.4391V52.4391C57.5819 52.3753 57.6181 52.3048 57.643 52.2301L57.9579 51.2877C58.1043 50.8493 58.2085 50.3979 58.2689 49.9396L58.3528 49.3036C58.4269 48.7417 58.4269 48.1726 58.3528 47.6107V47.6107C58.2375 46.7366 57.9449 45.8952 57.4929 45.1382L56.5746 43.6" stroke="#6B8BDD" stroke-width="3"/>
</svg>
