<svg width="210" height="44" viewBox="0 0 210 44" fill="none" xmlns="http://www.w3.org/2000/svg">
<path d="M64.47 31.24C63.13 31.24 61.93 30.98 60.87 30.46C59.83 29.94 59.02 29.15 58.44 28.09C57.86 27.01 57.57 25.64 57.57 23.98V14.86H62.25V23.29C62.25 24.63 62.53 25.62 63.09 26.26C63.67 26.88 64.48 27.19 65.52 27.19C66.24 27.19 66.88 27.04 67.44 26.74C68 26.42 68.44 25.94 68.76 25.3C69.08 24.64 69.24 23.82 69.24 22.84V14.86H73.92V31H69.48V26.56L70.29 27.85C69.75 28.97 68.95 29.82 67.89 30.4C66.85 30.96 65.71 31.24 64.47 31.24ZM78.2557 31V14.86H82.9357V31H78.2557ZM80.5957 12.61C79.7357 12.61 79.0357 12.36 78.4957 11.86C77.9557 11.36 77.6857 10.74 77.6857 10C77.6857 9.26 77.9557 8.64 78.4957 8.14C79.0357 7.64 79.7357 7.39 80.5957 7.39C81.4557 7.39 82.1557 7.63 82.6957 8.11C83.2357 8.57 83.5057 9.17 83.5057 9.91C83.5057 10.69 83.2357 11.34 82.6957 11.86C82.1757 12.36 81.4757 12.61 80.5957 12.61ZM86.1691 31V28.18L95.7091 16.9L96.5191 18.46H86.3791V14.86H100.299V17.68L90.7591 28.96L89.9191 27.4H100.569V31H86.1691ZM103.898 31V10H107.918L116.858 24.82H114.728L123.518 10H127.508L127.568 31H123.008L122.978 16.99H123.818L116.798 28.78H114.608L107.438 16.99H108.458V31H103.898ZM142.121 31V27.85L141.821 27.16V21.52C141.821 20.52 141.511 19.74 140.891 19.18C140.291 18.62 139.361 18.34 138.101 18.34C137.241 18.34 136.391 18.48 135.551 18.76C134.731 19.02 134.031 19.38 133.451 19.84L131.771 16.57C132.651 15.95 133.711 15.47 134.951 15.13C136.191 14.79 137.451 14.62 138.731 14.62C141.191 14.62 143.101 15.2 144.461 16.36C145.821 17.52 146.501 19.33 146.501 21.79V31H142.121ZM137.201 31.24C135.941 31.24 134.861 31.03 133.961 30.61C133.061 30.17 132.371 29.58 131.891 28.84C131.411 28.1 131.171 27.27 131.171 26.35C131.171 25.39 131.401 24.55 131.861 23.83C132.341 23.11 133.091 22.55 134.111 22.15C135.131 21.73 136.461 21.52 138.101 21.52H142.391V24.25H138.611C137.511 24.25 136.751 24.43 136.331 24.79C135.931 25.15 135.731 25.6 135.731 26.14C135.731 26.74 135.961 27.22 136.421 27.58C136.901 27.92 137.551 28.09 138.371 28.09C139.151 28.09 139.851 27.91 140.471 27.55C141.091 27.17 141.541 26.62 141.821 25.9L142.541 28.06C142.201 29.1 141.581 29.89 140.681 30.43C139.781 30.97 138.621 31.24 137.201 31.24ZM156.166 31.24C154.786 31.24 153.456 31.08 152.176 30.76C150.916 30.42 149.916 30 149.176 29.5L150.736 26.14C151.476 26.6 152.346 26.98 153.346 27.28C154.366 27.56 155.366 27.7 156.346 27.7C157.426 27.7 158.186 27.57 158.626 27.31C159.086 27.05 159.316 26.69 159.316 26.23C159.316 25.85 159.136 25.57 158.776 25.39C158.436 25.19 157.976 25.04 157.396 24.94C156.816 24.84 156.176 24.74 155.476 24.64C154.796 24.54 154.106 24.41 153.406 24.25C152.706 24.07 152.066 23.81 151.486 23.47C150.906 23.13 150.436 22.67 150.076 22.09C149.736 21.51 149.566 20.76 149.566 19.84C149.566 18.82 149.856 17.92 150.436 17.14C151.036 16.36 151.896 15.75 153.016 15.31C154.136 14.85 155.476 14.62 157.036 14.62C158.136 14.62 159.256 14.74 160.396 14.98C161.536 15.22 162.486 15.57 163.246 16.03L161.686 19.36C160.906 18.9 160.116 18.59 159.316 18.43C158.536 18.25 157.776 18.16 157.036 18.16C155.996 18.16 155.236 18.3 154.756 18.58C154.276 18.86 154.036 19.22 154.036 19.66C154.036 20.06 154.206 20.36 154.546 20.56C154.906 20.76 155.376 20.92 155.956 21.04C156.536 21.16 157.166 21.27 157.846 21.37C158.546 21.45 159.246 21.58 159.946 21.76C160.646 21.94 161.276 22.2 161.836 22.54C162.416 22.86 162.886 23.31 163.246 23.89C163.606 24.45 163.786 25.19 163.786 26.11C163.786 27.11 163.486 28 162.886 28.78C162.286 29.54 161.416 30.14 160.276 30.58C159.156 31.02 157.786 31.24 156.166 31.24ZM173.274 31.24C171.374 31.24 169.894 30.76 168.834 29.8C167.774 28.82 167.244 27.37 167.244 25.45V11.29H171.924V25.39C171.924 26.07 172.104 26.6 172.464 26.98C172.824 27.34 173.314 27.52 173.934 27.52C174.674 27.52 175.304 27.32 175.824 26.92L177.084 30.22C176.604 30.56 176.024 30.82 175.344 31C174.684 31.16 173.994 31.24 173.274 31.24ZM164.754 18.82V15.22H175.944V18.82H164.754ZM187.223 31.24C185.383 31.24 183.763 30.88 182.363 30.16C180.983 29.44 179.913 28.46 179.153 27.22C178.393 25.96 178.013 24.53 178.013 22.93C178.013 21.31 178.383 19.88 179.123 18.64C179.883 17.38 180.913 16.4 182.213 15.7C183.513 14.98 184.983 14.62 186.623 14.62C188.203 14.62 189.623 14.96 190.883 15.64C192.163 16.3 193.173 17.26 193.913 18.52C194.653 19.76 195.023 21.25 195.023 22.99C195.023 23.17 195.013 23.38 194.993 23.62C194.973 23.84 194.953 24.05 194.933 24.25H181.823V21.52H192.473L190.673 22.33C190.673 21.49 190.503 20.76 190.163 20.14C189.823 19.52 189.353 19.04 188.753 18.7C188.153 18.34 187.453 18.16 186.653 18.16C185.853 18.16 185.143 18.34 184.523 18.7C183.923 19.04 183.453 19.53 183.113 20.17C182.773 20.79 182.603 21.53 182.603 22.39V23.11C182.603 23.99 182.793 24.77 183.173 25.45C183.573 26.11 184.123 26.62 184.823 26.98C185.543 27.32 186.383 27.49 187.343 27.49C188.203 27.49 188.953 27.36 189.593 27.1C190.253 26.84 190.853 26.45 191.393 25.93L193.883 28.63C193.143 29.47 192.213 30.12 191.093 30.58C189.973 31.02 188.683 31.24 187.223 31.24ZM198.139 31V14.86H202.609V19.42L201.979 18.1C202.459 16.96 203.229 16.1 204.289 15.52C205.349 14.92 206.639 14.62 208.159 14.62V18.94C207.959 18.92 207.779 18.91 207.619 18.91C207.459 18.89 207.289 18.88 207.109 18.88C205.829 18.88 204.789 19.25 203.989 19.99C203.209 20.71 202.819 21.84 202.819 23.38V31H198.139Z" fill="#6B8BDD"/>
<path d="M25.5926 9.36778L28.0867 7.30053C29.2692 6.32047 29.3917 4.55068 28.3555 3.41706V3.41706C27.9118 2.93153 27.3054 2.62555 26.6512 2.55706L23.8339 2.26211C23.1073 2.18603 22.3872 1.98668 21.6567 2.0007C20.782 2.01749 19.6794 2.33955 18.8518 3.43697C17.6074 5.08728 14.7037 5.49986 13.4074 5.49986C12.2839 5.49986 9.88148 6.06715 9.25926 8.33634C8.48148 11.1728 7.18518 9.36778 4.85185 12.4621C2.77778 15.3502 2.77778 18.761 2.77778 20.198V20.198C2.77778 20.8825 2.68604 21.564 2.50502 22.2241L2.32022 22.8981C2.1077 23.6731 2 24.4732 2 25.2768V26.2917C2 27.3636 2.30985 28.4126 2.89225 29.3124L2.95949 29.4163C3.6761 30.5235 4.78366 31.3199 6.06137 31.6469V31.6469C6.46348 31.7498 6.85195 31.9 7.21862 32.0945L8.71777 32.8898C9.90353 33.5188 11.2755 33.7019 12.5847 33.406V33.406C14.8072 32.9036 16.5053 31.1071 16.8819 28.8599L16.9074 28.7074V28.7074C16.993 28.1967 16.9774 27.6741 16.8616 27.1693L16.7944 26.8768C16.6128 26.0855 16.2572 25.3446 15.7534 24.7079L15.7407 24.6918M25.5926 9.36778C27.1481 8.07848 30.7778 5.19042 32.8519 3.95269C34.1325 3.18846 35.479 3.36796 36.5252 3.79924C37.6214 4.25109 38.5405 5.04496 39.5424 5.67905L40.8667 6.51724C42.7576 7.7141 44.3498 9.32763 45.5214 11.2344L45.8558 11.7786C46.3446 12.5743 46.9415 13.2982 47.6294 13.9297L48.6777 14.8922C49.5144 15.6604 50.0957 16.6664 50.3434 17.7749V17.7749C50.753 19.6083 50.209 21.5244 48.8972 22.869L47.3704 24.434M25.5926 9.36778V9.36778C24.7516 11.71 24.7001 14.263 25.446 16.6372L25.5926 17.1036M25.5926 9.36778V9.36778C24.9658 8.65507 23.9693 8.39378 23.0734 8.70721L21.1852 9.36778M15.7407 24.6918V24.6918C15.9132 24.5203 16.1015 24.3655 16.3031 24.2294L16.5697 24.0495C17.5502 23.3879 18.7061 23.0344 19.8889 23.0344V23.0344M15.7407 24.6918V24.6918C14.1027 23.2255 11.8853 22.5865 9.71812 22.9562L9.25926 23.0344M13.6667 33.1614C14.1852 32.1698 16.6731 34.2404 19.8889 35.1539C21.2953 35.5535 22.7723 35.6269 24.0805 35.5716C26.3875 35.4739 28.4314 34.0975 29.7854 32.2271L31.5732 29.7574C32.0506 29.0979 32.8154 28.7074 33.6296 28.7074V28.7074M33.6296 28.7074H38.037M33.6296 28.7074L30.5243 32.2711C30.3489 32.4725 30.2084 32.7019 30.1087 32.9497V32.9497C29.6182 34.1693 30.2043 35.5562 31.4208 36.0544L32.9449 36.6786C33.3976 36.864 33.813 37.1299 34.1709 37.4634L38.1162 41.1406C38.995 41.9597 40.4312 41.5082 40.6833 40.3336V40.3336C40.9635 39.0276 40.0155 36.6833 40.6699 35.5188C41.1933 34.5875 41.8423 33.5775 41.9259 33.1614C42.0713 32.4386 44.3045 32.1456 46.0741 31.7096C47.2971 31.4082 48.057 30.3593 48.3641 29.1377V29.1377C48.7229 27.7101 48.4819 26.1978 47.6971 24.9524L47.3704 24.434M47.3704 24.434L45.2963 22.3711M45.2963 22.3711C44.2593 21.5975 43.1185 21.1263 39.5926 20.7137H35.7037M45.2963 22.3711L41.9259 14.3774" stroke="#6B8BDD" stroke-width="3"/>
</svg>
