<svg width="200" height="47" viewBox="0 0 200 47" fill="none" xmlns="http://www.w3.org/2000/svg">
<path d="M69.138 26.5394C68.0954 26.5394 67.1754 26.3477 66.378 25.9644C65.5807 25.5657 64.9597 24.9677 64.515 24.1704C64.0704 23.3577 63.848 22.338 63.848 21.1114V14.0964H66.723V20.7204C66.723 21.8244 66.9684 22.6524 67.459 23.2044C67.965 23.741 68.678 24.0094 69.598 24.0094C70.2727 24.0094 70.8554 23.8714 71.346 23.5954C71.852 23.3194 72.243 22.9054 72.519 22.3534C72.8104 21.8014 72.956 21.119 72.956 20.3064V14.0964H75.831V26.3784H73.094V23.0664L73.577 24.0784C73.163 24.8757 72.5574 25.489 71.76 25.9184C70.9627 26.3324 70.0887 26.5394 69.138 26.5394ZM79.5953 26.3784V14.0964H82.4703V26.3784H79.5953ZM81.0443 12.0724C80.5077 12.0724 80.063 11.9037 79.7103 11.5664C79.373 11.229 79.2043 10.8227 79.2043 10.3474C79.2043 9.85671 79.373 9.45038 79.7103 9.12838C80.063 8.79105 80.5077 8.62238 81.0443 8.62238C81.581 8.62238 82.018 8.78338 82.3553 9.10538C82.708 9.41205 82.8843 9.80305 82.8843 10.2784C82.8843 10.7844 82.7157 11.2137 82.3783 11.5664C82.041 11.9037 81.5963 12.0724 81.0443 12.0724ZM85.2318 26.3784V24.5614L92.7988 15.4074L93.3278 16.3964H85.3698V14.0964H95.6278V15.9134L88.0608 25.0674L87.4858 24.0784H95.8348V26.3784H85.2318ZM98.761 26.3784V10.2784H101.222L108.26 22.0314H106.972L113.895 10.2784H116.356L116.379 26.3784H113.55L113.527 14.7174H114.125L108.237 24.5384H106.903L100.923 14.7174H101.613V26.3784H98.761ZM128.019 26.3784V23.8944L127.858 23.3654V19.0184C127.858 18.175 127.605 17.5234 127.099 17.0634C126.593 16.588 125.826 16.3504 124.799 16.3504C124.109 16.3504 123.426 16.4577 122.752 16.6724C122.092 16.887 121.533 17.186 121.073 17.5694L119.946 15.4764C120.605 14.9704 121.387 14.5947 122.292 14.3494C123.212 14.0887 124.162 13.9584 125.144 13.9584C126.922 13.9584 128.295 14.3877 129.261 15.2464C130.242 16.0897 130.733 17.4007 130.733 19.1794V26.3784H128.019ZM124.155 26.5394C123.235 26.5394 122.43 26.386 121.74 26.0794C121.05 25.7574 120.513 25.3204 120.13 24.7684C119.762 24.201 119.578 23.5647 119.578 22.8594C119.578 22.1694 119.739 21.5484 120.061 20.9964C120.398 20.4444 120.942 20.0074 121.694 19.6854C122.445 19.3634 123.442 19.2024 124.684 19.2024H128.249V21.1114H124.891C123.909 21.1114 123.25 21.2724 122.913 21.5944C122.575 21.901 122.407 22.2844 122.407 22.7444C122.407 23.2657 122.614 23.6797 123.028 23.9864C123.442 24.293 124.017 24.4464 124.753 24.4464C125.458 24.4464 126.087 24.2854 126.639 23.9634C127.206 23.6414 127.612 23.166 127.858 22.5374L128.341 24.2624C128.065 24.983 127.566 25.5427 126.846 25.9414C126.14 26.34 125.243 26.5394 124.155 26.5394ZM138.217 26.5394C137.19 26.5394 136.201 26.409 135.25 26.1484C134.315 25.8724 133.571 25.5427 133.019 25.1594L134.123 22.9744C134.675 23.327 135.335 23.6184 136.101 23.8484C136.868 24.0784 137.635 24.1934 138.401 24.1934C139.306 24.1934 139.958 24.0707 140.356 23.8254C140.77 23.58 140.977 23.2504 140.977 22.8364C140.977 22.499 140.839 22.246 140.563 22.0774C140.287 21.8934 139.927 21.7554 139.482 21.6634C139.038 21.5714 138.539 21.487 137.987 21.4104C137.451 21.3337 136.906 21.234 136.354 21.1114C135.818 20.9734 135.327 20.7817 134.882 20.5364C134.438 20.2757 134.077 19.9307 133.801 19.5014C133.525 19.072 133.387 18.5047 133.387 17.7994C133.387 17.0174 133.61 16.3427 134.054 15.7754C134.499 15.1927 135.12 14.748 135.917 14.4414C136.73 14.1194 137.688 13.9584 138.792 13.9584C139.62 13.9584 140.456 14.0504 141.299 14.2344C142.143 14.4184 142.84 14.679 143.392 15.0164L142.288 17.2014C141.706 16.8487 141.115 16.611 140.517 16.4884C139.935 16.3504 139.352 16.2814 138.769 16.2814C137.895 16.2814 137.244 16.4117 136.814 16.6724C136.4 16.933 136.193 17.2627 136.193 17.6614C136.193 18.0294 136.331 18.3054 136.607 18.4894C136.883 18.6734 137.244 18.819 137.688 18.9264C138.133 19.0337 138.624 19.1257 139.16 19.2024C139.712 19.2637 140.257 19.3634 140.793 19.5014C141.33 19.6394 141.821 19.831 142.265 20.0764C142.725 20.3064 143.093 20.636 143.369 21.0654C143.645 21.4947 143.783 22.0544 143.783 22.7444C143.783 23.511 143.553 24.178 143.093 24.7454C142.649 25.3127 142.012 25.7574 141.184 26.0794C140.356 26.386 139.367 26.5394 138.217 26.5394ZM150.882 26.5394C149.533 26.5394 148.49 26.1944 147.754 25.5044C147.018 24.799 146.65 23.764 146.65 22.3994V11.3824H149.525V22.3304C149.525 22.913 149.671 23.3654 149.962 23.6874C150.269 24.0094 150.691 24.1704 151.227 24.1704C151.871 24.1704 152.408 24.0017 152.837 23.6644L153.642 25.7114C153.305 25.9874 152.891 26.1944 152.4 26.3324C151.91 26.4704 151.404 26.5394 150.882 26.5394ZM144.626 16.4884V14.1884H152.814V16.4884H144.626ZM161.376 26.5394C160.011 26.5394 158.815 26.271 157.788 25.7344C156.776 25.1824 155.986 24.431 155.419 23.4804C154.867 22.5297 154.591 21.4487 154.591 20.2374C154.591 19.0107 154.859 17.9297 155.396 16.9944C155.948 16.0437 156.699 15.3 157.65 14.7634C158.616 14.2267 159.712 13.9584 160.939 13.9584C162.135 13.9584 163.201 14.219 164.136 14.7404C165.071 15.2617 165.807 15.9977 166.344 16.9484C166.881 17.899 167.149 19.0184 167.149 20.3064C167.149 20.429 167.141 20.567 167.126 20.7204C167.126 20.8737 167.118 21.0194 167.103 21.1574H156.868V19.2484H165.585L164.458 19.8464C164.473 19.141 164.328 18.52 164.021 17.9834C163.714 17.4467 163.293 17.025 162.756 16.7184C162.235 16.4117 161.629 16.2584 160.939 16.2584C160.234 16.2584 159.613 16.4117 159.076 16.7184C158.555 17.025 158.141 17.4544 157.834 18.0064C157.543 18.543 157.397 19.1794 157.397 19.9154V20.3754C157.397 21.1114 157.566 21.763 157.903 22.3304C158.24 22.8977 158.716 23.3347 159.329 23.6414C159.942 23.948 160.648 24.1014 161.445 24.1014C162.135 24.1014 162.756 23.994 163.308 23.7794C163.86 23.5647 164.351 23.2274 164.78 22.7674L166.321 24.5384C165.769 25.1824 165.071 25.6807 164.228 26.0334C163.4 26.3707 162.449 26.5394 161.376 26.5394ZM169.911 26.3784V14.0964H172.648V17.4774L172.326 16.4884C172.694 15.6604 173.269 15.0317 174.051 14.6024C174.848 14.173 175.837 13.9584 177.018 13.9584V16.6954C176.895 16.6647 176.78 16.6494 176.673 16.6494C176.565 16.634 176.458 16.6264 176.351 16.6264C175.262 16.6264 174.396 16.9484 173.752 17.5924C173.108 18.221 172.786 19.164 172.786 20.4214V26.3784H169.911Z" fill="#6B8BDD"/>
<path d="M22.1577 24.5319L23.5476 25.3776C25.2373 26.4057 27.1772 26.9495 29.155 26.9495V26.9495C31.5304 26.9495 33.8393 26.1655 35.7236 24.7192L35.9676 24.5319" stroke="#6B8BDD" stroke-width="2.3"/>
<path d="M17.5059 20.5187V19.4538C17.5059 18.6919 17.6872 17.9409 18.0348 17.2629L18.0491 17.2351C18.3926 16.5652 18.8928 15.9882 19.5072 15.5531V15.5531C19.883 15.2869 20.2962 15.0778 20.7333 14.9324L20.8845 14.8821C21.3106 14.7404 21.7567 14.6681 22.2057 14.6681V14.6681C22.7185 14.6681 23.2269 14.7624 23.7057 14.9461L24.0112 15.0634C24.1643 15.1221 24.3113 15.1953 24.4504 15.282V15.282C24.8217 15.5136 25.1277 15.8362 25.3395 16.2191L25.5022 16.5135C25.6942 16.8607 25.8316 17.2353 25.9095 17.6243L25.9986 18.0688C26.0867 18.5083 26.1311 18.9555 26.1311 19.4037V20.5187" stroke="#6B8BDD" stroke-width="2.3"/>
<path d="M31.655 20.5187V19.4538C31.655 18.6919 31.8363 17.9409 32.1839 17.2629L32.1982 17.2351C32.5417 16.5652 33.0419 15.9882 33.6563 15.5531V15.5531C34.0322 15.2869 34.4453 15.0778 34.8824 14.9324L35.0336 14.8821C35.4597 14.7404 35.9058 14.6681 36.3548 14.6681V14.6681C36.8676 14.6681 37.376 14.7624 37.8548 14.9461L38.1604 15.0634C38.3134 15.1221 38.4604 15.1953 38.5995 15.282V15.282C38.9708 15.5136 39.2768 15.8362 39.4886 16.2191L39.6514 16.5135C39.8433 16.8607 39.9807 17.2353 40.0586 17.6243L40.1477 18.0688C40.2358 18.5083 40.2802 18.9555 40.2802 19.4037V20.5187" stroke="#6B8BDD" stroke-width="2.3"/>
<path d="M24.4945 3.50901L22.9757 5.16231C22.7673 5.38907 22.4121 5.39679 22.1942 5.1793C22.1699 5.15506 22.1434 5.13318 22.1149 5.11397L21.5387 4.72447C20.9631 4.33539 20.2843 4.12747 19.5895 4.12747C18.8854 4.12747 18.1879 4.26301 17.535 4.5267L16.4883 4.94945L15.7808 5.33189C15.479 5.49497 15.2048 5.70438 14.968 5.95248L14.8584 6.06731C14.5295 6.41186 14.298 6.83752 14.1875 7.30081L14.1553 7.43551C14.1279 7.55063 14.114 7.66858 14.114 7.78694V8.42889C14.114 8.9106 13.7235 9.3011 13.2418 9.3011H12.3872C11.8609 9.3011 11.3369 9.37052 10.8287 9.50757L10.6545 9.55454C10.0902 9.70673 9.55714 9.95726 9.07984 10.2946L9.02048 10.3366C8.76655 10.5161 8.53283 10.7225 8.32341 10.9524C7.89278 11.4251 7.57294 11.9878 7.38713 12.5996L7.37705 12.6328C7.24957 13.0526 7.18478 13.4889 7.18478 13.9276V14.5372C7.18478 14.6884 7.20336 14.839 7.2401 14.9856L7.66162 16.6681C7.73937 16.9784 7.50469 17.2791 7.18478 17.2791H6.72908C5.85432 17.2791 4.99623 17.5184 4.24771 17.9711L4.23 17.9818C3.93947 18.1575 3.66925 18.3648 3.42425 18.5998C2.8404 19.16 2.4116 19.8735 2.18616 20.6506C2.06365 21.0729 2 21.5155 2 21.9552V22.4218C2 22.9556 2.07364 23.4869 2.21884 24.0006L2.26856 24.1765C2.44315 24.7942 2.73775 25.3714 3.13551 25.8751C3.5687 26.4238 4.11459 26.8731 4.7363 27.1927L5.39191 27.5297L5.67257 27.6432C6.54725 27.997 7.04178 28.9276 6.84559 29.8505C6.54195 30.911 6.7755 32.0529 7.47112 32.909L7.55414 33.0112C7.7273 33.2243 7.92408 33.417 8.1407 33.5858L8.30936 33.7171C9.27633 34.4702 10.4669 34.8791 11.6926 34.8791H11.9335C13.257 34.8791 14.4538 35.6659 14.9787 36.8809L15.0432 37.0302C15.2295 37.4615 15.4992 37.8517 15.8368 38.1784L15.8537 38.1947C16.5405 38.8593 17.4587 39.2308 18.4143 39.2308H18.6688H18.9096C20.0481 39.2308 21.1613 38.8943 22.1092 38.2637L22.9352 37.6868C23.3126 37.4232 23.8141 37.4219 24.1928 37.6835L25.0906 38.3382C25.3311 38.5135 25.5491 38.7177 25.7399 38.9461C26.1852 39.4793 26.7737 39.874 27.436 40.0835L27.7216 40.1739C28.1768 40.3179 28.6515 40.3912 29.129 40.3912H29.5987C30.2235 40.3912 30.8452 40.3034 31.4456 40.1303C32.2876 39.8876 33.0736 39.4812 33.7585 38.9345L34.1747 38.6022L35.2411 37.7935C35.3371 37.7207 35.4199 37.632 35.4861 37.5313C35.8866 36.9213 36.7701 36.8908 37.2118 37.4717L37.2325 37.4989C37.325 37.6206 37.4422 37.7213 37.5765 37.7944L37.8602 37.9488C38.2399 38.1555 38.6654 38.2637 39.0977 38.2637H39.3059C39.7257 38.2637 40.1466 38.1843 40.5382 38.0331C41.1256 37.8062 41.6476 37.4212 42.0347 36.9246L42.6892 36.0849C42.7626 35.9906 42.8229 35.8868 42.8684 35.7763L43.1059 35.1986C43.335 34.6413 44.0463 34.4778 44.4958 34.8791L45.6588 35.9429L46.0934 36.2681C46.577 36.63 47.1048 36.9287 47.664 37.157L47.9397 37.2695C48.6094 37.5429 49.3258 37.6835 50.0492 37.6835H50.4136C50.6668 37.6835 50.9189 37.6498 51.1632 37.5833L51.2339 37.5641C51.9722 37.3632 52.5901 36.8574 52.9328 36.1733C53.1203 35.7992 53.2179 35.3865 53.2179 34.968V33.6118C53.2179 33.49 53.2303 33.3684 53.2548 33.2491L53.3592 32.7411C53.4966 32.073 54.139 31.6341 54.8114 31.7491C55.1264 31.803 55.4501 31.7356 55.7175 31.5606L56.8521 30.8176C57.6033 30.2242 58.1211 29.3849 58.3145 28.4474L58.3542 28.2549L58.7575 27.0478C58.9718 26.4062 59.0811 25.7342 59.0811 25.0578V24.8633C59.0811 24.1343 58.9319 23.4131 58.6426 22.7439L58.5693 22.5744C58.2076 21.7376 57.6111 21.0236 56.8521 20.5187L55.5388 19.6177C55.3813 19.5097 55.2099 19.4236 55.0293 19.3618L54.8067 19.2856C54.0883 19.0399 53.6056 18.3646 53.6056 17.6053C53.6056 17.3896 53.5663 17.1758 53.4897 16.9742L53.2474 16.3369C53.1311 16.0309 52.9868 15.7363 52.8163 15.4569L52.7039 15.2726C52.4986 14.936 52.2435 14.6325 51.9472 14.3724C51.4459 13.9322 50.8403 13.6279 50.1879 13.4884L49.3995 13.3198C49.2321 13.284 49.0613 13.2659 48.89 13.2659H48.1578C47.5349 13.2659 46.9835 12.8636 46.7933 12.2706C46.7479 12.1291 46.7248 11.9815 46.7248 11.833V11.5474C46.7248 10.9328 46.551 10.3306 46.2234 9.81055L46.1295 9.66161C45.8197 9.16972 45.403 8.754 44.9103 8.44534L44.4509 8.15748C43.871 7.79416 43.2354 7.52865 42.5694 7.37156L41.6659 7.15848C41.1637 7.04004 40.6495 6.98022 40.1336 6.98022H38.8788C37.9144 6.98022 36.9894 6.59766 36.3068 5.91648L34.9788 4.48741C34.226 3.67734 33.3028 3.0445 32.2757 2.63456C31.7026 2.40581 31.1034 2.24895 30.4917 2.16756L29.2322 2H28.281C27.2257 2 26.1929 2.30561 25.3075 2.8799L25.0128 3.07103C24.8222 3.19461 24.6481 3.34177 24.4945 3.50901Z" stroke="#6B8BDD" stroke-width="2.3"/>
<path d="M41.2978 37.3934L44.6412 39.956L47.3141 42.5357C47.4974 42.7126 47.6158 42.946 47.6504 43.1983L47.8129 44.3839C47.893 44.9687 48.6453 45.1572 48.9917 44.6792V44.6792C49.0308 44.6253 49.0615 44.5656 49.0826 44.5024L49.349 43.7049C49.4729 43.334 49.561 42.952 49.6121 42.5643L49.6831 42.0261C49.7458 41.5507 49.7458 41.0691 49.6831 40.5937V40.5937C49.5856 39.854 49.338 39.1421 48.9556 38.5015L48.1785 37.2" stroke="#6B8BDD" stroke-width="2.3"/>
</svg>
