<svg width="214" height="50" viewBox="0 0 214 50" fill="none" xmlns="http://www.w3.org/2000/svg">
<path d="M74.008 37.182C72.8293 37.182 71.7893 36.9653 70.888 36.532C69.9867 36.0813 69.2847 35.4053 68.782 34.504C68.2793 33.5853 68.028 32.4327 68.028 31.046V23.116H71.278V30.604C71.278 31.852 71.5553 32.788 72.11 33.412C72.682 34.0187 73.488 34.322 74.528 34.322C75.2907 34.322 75.9493 34.166 76.504 33.854C77.076 33.542 77.518 33.074 77.83 32.45C78.1593 31.826 78.324 31.0547 78.324 30.136V23.116H81.574V37H78.48V33.256L79.026 34.4C78.558 35.3013 77.8733 35.9947 76.972 36.48C76.0707 36.948 75.0827 37.182 74.008 37.182ZM85.8293 37V23.116H89.0793V37H85.8293ZM87.4673 20.828C86.8606 20.828 86.3579 20.6373 85.9593 20.256C85.5779 19.8747 85.3873 19.4153 85.3873 18.878C85.3873 18.3233 85.5779 17.864 85.9593 17.5C86.3579 17.1187 86.8606 16.928 87.4673 16.928C88.0739 16.928 88.5679 17.11 88.9493 17.474C89.3479 17.8207 89.5473 18.2627 89.5473 18.8C89.5473 19.372 89.3566 19.8573 88.9753 20.256C88.5939 20.6373 88.0913 20.828 87.4673 20.828ZM92.2009 37V34.946L100.755 24.598L101.353 25.716H92.3569V23.116H103.953V25.17L95.3989 35.518L94.7489 34.4H104.187V37H92.2009ZM107.495 37V18.8H110.277L118.233 32.086H116.777L124.603 18.8H127.385L127.411 37H124.213L124.187 23.818H124.863L118.207 34.92H116.699L109.939 23.818H110.719V37H107.495ZM140.569 37V34.192L140.387 33.594V28.68C140.387 27.7267 140.101 26.99 139.529 26.47C138.957 25.9327 138.09 25.664 136.929 25.664C136.149 25.664 135.377 25.7853 134.615 26.028C133.869 26.2707 133.237 26.6087 132.717 27.042L131.443 24.676C132.188 24.104 133.072 23.6793 134.095 23.402C135.135 23.1073 136.209 22.96 137.319 22.96C139.329 22.96 140.881 23.4453 141.973 24.416C143.082 25.3693 143.637 26.8513 143.637 28.862V37H140.569ZM136.201 37.182C135.161 37.182 134.251 37.0087 133.471 36.662C132.691 36.298 132.084 35.804 131.651 35.18C131.235 34.5387 131.027 33.8193 131.027 33.022C131.027 32.242 131.209 31.54 131.573 30.916C131.954 30.292 132.569 29.798 133.419 29.434C134.268 29.07 135.395 28.888 136.799 28.888H140.829V31.046H137.033C135.923 31.046 135.178 31.228 134.797 31.592C134.415 31.9387 134.225 32.372 134.225 32.892C134.225 33.4813 134.459 33.9493 134.927 34.296C135.395 34.6427 136.045 34.816 136.877 34.816C137.674 34.816 138.385 34.634 139.009 34.27C139.65 33.906 140.109 33.3687 140.387 32.658L140.933 34.608C140.621 35.4227 140.057 36.0553 139.243 36.506C138.445 36.9567 137.431 37.182 136.201 37.182ZM152.098 37.182C150.936 37.182 149.818 37.0347 148.744 36.74C147.686 36.428 146.846 36.0553 146.222 35.622L147.47 33.152C148.094 33.5507 148.839 33.88 149.706 34.14C150.572 34.4 151.439 34.53 152.306 34.53C153.328 34.53 154.065 34.3913 154.516 34.114C154.984 33.8367 155.218 33.464 155.218 32.996C155.218 32.6147 155.062 32.3287 154.75 32.138C154.438 31.93 154.03 31.774 153.528 31.67C153.025 31.566 152.462 31.4707 151.838 31.384C151.231 31.2973 150.616 31.1847 149.992 31.046C149.385 30.89 148.83 30.6733 148.328 30.396C147.825 30.1013 147.418 29.7113 147.106 29.226C146.794 28.7407 146.638 28.0993 146.638 27.302C146.638 26.418 146.889 25.6553 147.392 25.014C147.894 24.3553 148.596 23.8527 149.498 23.506C150.416 23.142 151.5 22.96 152.748 22.96C153.684 22.96 154.628 23.064 155.582 23.272C156.535 23.48 157.324 23.7747 157.948 24.156L156.7 26.626C156.041 26.2273 155.374 25.9587 154.698 25.82C154.039 25.664 153.38 25.586 152.722 25.586C151.734 25.586 150.997 25.7333 150.512 26.028C150.044 26.3227 149.81 26.6953 149.81 27.146C149.81 27.562 149.966 27.874 150.278 28.082C150.59 28.29 150.997 28.4547 151.5 28.576C152.002 28.6973 152.557 28.8013 153.164 28.888C153.788 28.9573 154.403 29.07 155.01 29.226C155.616 29.382 156.171 29.5987 156.674 29.876C157.194 30.136 157.61 30.5087 157.922 30.994C158.234 31.4793 158.39 32.112 158.39 32.892C158.39 33.7587 158.13 34.5127 157.61 35.154C157.107 35.7953 156.388 36.298 155.452 36.662C154.516 37.0087 153.398 37.182 152.098 37.182ZM166.415 37.182C164.889 37.182 163.711 36.792 162.879 36.012C162.047 35.2147 161.631 34.0447 161.631 32.502V20.048H164.881V32.424C164.881 33.0827 165.045 33.594 165.375 33.958C165.721 34.322 166.198 34.504 166.805 34.504C167.533 34.504 168.139 34.3133 168.625 33.932L169.535 36.246C169.153 36.558 168.685 36.792 168.131 36.948C167.576 37.104 167.004 37.182 166.415 37.182ZM159.343 25.82V23.22H168.599V25.82H159.343ZM178.277 37.182C176.734 37.182 175.382 36.8787 174.221 36.272C173.077 35.648 172.184 34.7987 171.543 33.724C170.919 32.6493 170.607 31.4273 170.607 30.058C170.607 28.6713 170.91 27.4493 171.517 26.392C172.141 25.3173 172.99 24.4767 174.065 23.87C175.157 23.2633 176.396 22.96 177.783 22.96C179.135 22.96 180.34 23.2547 181.397 23.844C182.454 24.4333 183.286 25.2653 183.893 26.34C184.5 27.4147 184.803 28.68 184.803 30.136C184.803 30.2747 184.794 30.4307 184.777 30.604C184.777 30.7773 184.768 30.942 184.751 31.098H173.181V28.94H183.035L181.761 29.616C181.778 28.8187 181.614 28.1167 181.267 27.51C180.92 26.9033 180.444 26.4267 179.837 26.08C179.248 25.7333 178.563 25.56 177.783 25.56C176.986 25.56 176.284 25.7333 175.677 26.08C175.088 26.4267 174.62 26.912 174.273 27.536C173.944 28.1427 173.779 28.862 173.779 29.694V30.214C173.779 31.046 173.97 31.7827 174.351 32.424C174.732 33.0653 175.27 33.5593 175.963 33.906C176.656 34.2527 177.454 34.426 178.355 34.426C179.135 34.426 179.837 34.3047 180.461 34.062C181.085 33.8193 181.64 33.438 182.125 32.918L183.867 34.92C183.243 35.648 182.454 36.2113 181.501 36.61C180.565 36.9913 179.49 37.182 178.277 37.182ZM187.925 37V23.116H191.019V26.938L190.655 25.82C191.071 24.884 191.721 24.1733 192.605 23.688C193.506 23.2027 194.624 22.96 195.959 22.96V26.054C195.82 26.0193 195.69 26.002 195.569 26.002C195.448 25.9847 195.326 25.976 195.205 25.976C193.974 25.976 192.995 26.34 192.267 27.068C191.539 27.7787 191.175 28.8447 191.175 30.266V37H187.925Z" fill="#6B8BDD"/>
<path d="M23.5819 26.1239L25.0701 27.0294C26.8792 28.1301 28.9561 28.7123 31.0737 28.7123V28.7123C33.6169 28.7123 36.089 27.8729 38.1064 26.3244L38.3676 26.1239" stroke="#6B8BDD" stroke-width="3"/>
<path d="M18.6015 21.8272V20.687C18.6015 19.8713 18.7956 19.0673 19.1678 18.3414L19.1831 18.3116C19.5508 17.5944 20.0864 16.9766 20.7441 16.5107V16.5107C21.1466 16.2258 21.5889 16.0018 22.0569 15.8462L22.2188 15.7923C22.675 15.6406 23.1526 15.5632 23.6334 15.5632V15.5632C24.1824 15.5632 24.7267 15.6641 25.2393 15.8608L25.5665 15.9864C25.7303 16.0493 25.8877 16.1277 26.0366 16.2205V16.2205C26.4342 16.4685 26.7618 16.8138 26.9886 17.2238L27.1628 17.539C27.3683 17.9107 27.5154 18.3118 27.5989 18.7282L27.6943 19.2041C27.7886 19.6747 27.8361 20.1535 27.8361 20.6334V21.8272" stroke="#6B8BDD" stroke-width="3"/>
<path d="M33.7504 21.8272V20.687C33.7504 19.8713 33.9445 19.0673 34.3167 18.3414L34.3319 18.3116C34.6997 17.5944 35.2352 16.9766 35.893 16.5107V16.5107C36.2955 16.2258 36.7378 16.0018 37.2057 15.8462L37.3676 15.7923C37.8238 15.6406 38.3015 15.5632 38.7822 15.5632V15.5632C39.3312 15.5632 39.8756 15.6641 40.3882 15.8608L40.7153 15.9864C40.8792 16.0493 41.0366 16.1277 41.1855 16.2205V16.2205C41.5831 16.4685 41.9107 16.8138 42.1374 17.2238L42.3117 17.539C42.5172 17.9107 42.6643 18.3118 42.7477 18.7282L42.8431 19.2041C42.9374 19.6747 42.9849 20.1535 42.9849 20.6334V21.8272" stroke="#6B8BDD" stroke-width="3"/>
<path d="M26.0838 3.61563L24.4577 5.38575C24.2347 5.62853 23.8544 5.6368 23.621 5.40394C23.595 5.37799 23.5666 5.35457 23.5362 5.33399L22.9193 4.91697C22.303 4.5004 21.5762 4.27779 20.8323 4.27779C20.0785 4.27779 19.3317 4.42291 18.6327 4.70523L17.512 5.15785L16.7545 5.56731C16.4314 5.74191 16.1378 5.96612 15.8843 6.23176L15.7669 6.35469C15.4148 6.72359 15.167 7.17932 15.0486 7.67535L15.0142 7.81957C14.9848 7.94283 14.9699 8.06911 14.9699 8.19583V8.88314C14.9699 9.39888 14.5518 9.81697 14.0361 9.81697H13.1211C12.5576 9.81697 11.9966 9.8913 11.4525 10.038L11.266 10.0883C10.6618 10.2513 10.0911 10.5195 9.58008 10.8807L9.51652 10.9256C9.24465 11.1178 8.99442 11.3389 8.7702 11.585C8.30915 12.091 7.9667 12.6935 7.76777 13.3486L7.75698 13.3841C7.62049 13.8335 7.55113 14.3007 7.55113 14.7704V15.4231C7.55113 15.5849 7.57102 15.7462 7.61035 15.9032L8.06165 17.7045C8.14489 18.0367 7.89364 18.3587 7.55113 18.3587H7.06322C6.12666 18.3587 5.20794 18.6149 4.40653 19.0996L4.38756 19.111C4.07651 19.2991 3.78719 19.5211 3.52488 19.7727C2.89978 20.3725 2.44068 21.1364 2.19932 21.9684C2.06815 22.4205 2 22.8944 2 23.3652V23.8648C2 24.4363 2.07884 25.0051 2.2343 25.5551L2.28754 25.7434C2.47446 26.4047 2.78987 27.0227 3.21574 27.5621C3.67954 28.1495 4.264 28.6305 4.92964 28.9727L5.63158 29.3335L5.93207 29.4551C6.86854 29.8339 7.39802 30.8303 7.18797 31.8184C6.86287 32.9538 7.11292 34.1764 7.8577 35.093L7.94658 35.2024C8.13197 35.4305 8.34265 35.6369 8.57459 35.8175L8.75516 35.9581C9.79046 36.7644 11.0652 37.2023 12.3774 37.2023H12.6353C14.0524 37.2023 15.3338 38.0446 15.8957 39.3454L15.9648 39.5053C16.1642 39.9671 16.453 40.3849 16.8145 40.7346L16.8326 40.7521C17.5679 41.4636 18.551 41.8614 19.5741 41.8614H19.8466H20.1044C21.3233 41.8614 22.5151 41.5012 23.5301 40.826L24.4144 40.2083C24.8185 39.9261 25.3554 39.9247 25.7609 40.2048L26.7221 40.9057C26.9796 41.0935 27.213 41.3121 27.4173 41.5566C27.894 42.1275 28.5241 42.55 29.2332 42.7744L29.539 42.8711C30.0264 43.0253 30.5346 43.1038 31.0458 43.1038H31.5487C32.2177 43.1038 32.8833 43.0098 33.5261 42.8245C34.4277 42.5646 35.2692 42.1295 36.0024 41.5442L36.4481 41.1884L37.5898 40.3226C37.6926 40.2446 37.7813 40.1497 37.8521 40.0419C38.2809 39.3887 39.2269 39.356 39.6998 39.9781L39.7219 40.0072C39.821 40.1375 39.9465 40.2453 40.0902 40.3235L40.394 40.4888C40.8005 40.7101 41.256 40.826 41.7189 40.826H41.9418C42.3913 40.826 42.842 40.741 43.2612 40.579C43.8901 40.3361 44.449 39.924 44.8634 39.3922L45.5642 38.4932C45.6428 38.3923 45.7074 38.2812 45.756 38.1628L46.0103 37.5444C46.2556 36.9476 47.0172 36.7726 47.4985 37.2023L48.7436 38.3412L49.2089 38.6894C49.7267 39.0769 50.2917 39.3967 50.8905 39.6411L51.1856 39.7616C51.9026 40.0543 52.6697 40.2048 53.4442 40.2048H53.8344C54.1055 40.2048 54.3754 40.1687 54.6369 40.0976L54.7127 40.077C55.5031 39.8618 56.1646 39.3203 56.5316 38.5879C56.7323 38.1874 56.8368 37.7455 56.8368 37.2975V35.8454C56.8368 35.7149 56.8501 35.5849 56.8763 35.4571L56.9881 34.9132C57.1352 34.1978 57.823 33.728 58.5429 33.8511C58.8802 33.9088 59.2268 33.8367 59.513 33.6492L60.7278 32.8537C61.532 32.2184 62.0864 31.3199 62.2935 30.3161L62.3361 30.11L62.7678 28.8177C62.9973 28.1307 63.1143 27.4112 63.1143 26.687V26.4787C63.1143 25.6983 62.9545 24.926 62.6448 24.2096L62.5663 24.0281C62.179 23.1322 61.5404 22.3678 60.7278 21.8272L59.3217 20.8625C59.1531 20.7469 58.9696 20.6547 58.7762 20.5886L58.5378 20.507C57.7687 20.2439 57.2519 19.5208 57.2519 18.7079C57.2519 18.477 57.2098 18.2481 57.1278 18.0323L56.8684 17.3499C56.7438 17.0223 56.5893 16.7069 56.4068 16.4077L56.2865 16.2104C56.0667 15.8501 55.7935 15.5251 55.4763 15.2465C54.9397 14.7753 54.2912 14.4495 53.5927 14.3001L52.7486 14.1196C52.5693 14.0813 52.3865 14.062 52.2031 14.062H51.4191C50.7523 14.062 50.1618 13.6312 49.9582 12.9963C49.9097 12.8448 49.8849 12.6868 49.8849 12.5278V12.222C49.8849 11.5639 49.6988 10.9192 49.3481 10.3624L49.2476 10.203C48.9159 9.67631 48.4697 9.23122 47.9422 8.90074L47.4504 8.59255C46.8295 8.20356 46.1489 7.91928 45.4359 7.7511L44.4686 7.52296C43.9309 7.39615 43.3804 7.33211 42.828 7.33211H41.4845C40.452 7.33211 39.4617 6.92252 38.7308 6.19321L37.309 4.66317C36.503 3.79586 35.5146 3.1183 34.4149 2.6794C33.8013 2.43448 33.1597 2.26654 32.5048 2.1794L31.1564 2H30.138C29.008 2 27.9023 2.3272 26.9543 2.94207L26.6388 3.14671C26.4348 3.27902 26.2483 3.43657 26.0838 3.61563Z" stroke="#6B8BDD" stroke-width="3"/>
<path d="M44.0744 39.8942L47.6541 42.6379L50.5159 45.3999C50.7121 45.5892 50.8389 45.8391 50.8759 46.1093L51.0499 47.3786C51.1357 48.0047 51.9411 48.2065 52.312 47.6948V47.6948C52.3539 47.637 52.3867 47.5732 52.4093 47.5055L52.6945 46.6517C52.8272 46.2545 52.9215 45.8456 52.9763 45.4304L53.0523 44.8542C53.1194 44.3452 53.1194 43.8296 53.0523 43.3206V43.3206C52.9478 42.5287 52.6828 41.7665 52.2733 41.0806L51.4413 39.6871" stroke="#6B8BDD" stroke-width="3"/>
</svg>
