<svg width="200" height="45" viewBox="0 0 200 45" fill="none" xmlns="http://www.w3.org/2000/svg">
<path d="M25.5926 8.88728L28.0466 6.98598C29.2252 6.07277 29.3447 4.33632 28.3023 3.27022V3.27022C27.8918 2.85033 27.3462 2.58876 26.7618 2.53156L23.8164 2.2433C23.1011 2.1733 22.3919 1.99041 21.6732 2.00039C20.796 2.01258 19.6846 2.31093 18.8518 3.34325C17.6074 4.88594 14.7037 5.27161 13.4074 5.27161C12.2839 5.27161 9.88148 5.8019 9.25926 7.9231C8.48148 10.5746 7.18518 8.88727 4.85185 11.7798C2.77778 14.4795 2.77778 17.6679 2.77778 19.0111V19.0111C2.77778 19.6507 2.68639 20.2869 2.50638 20.9005L2.32055 21.534C2.10794 22.2588 2 23.0103 2 23.7656V24.6042C2 25.671 2.32534 26.7124 2.93261 27.5894V27.5894C3.66764 28.651 4.76847 29.4041 6.02426 29.7045L6.07421 29.7164C6.46792 29.8106 6.84974 29.9489 7.21242 30.1288L8.77823 30.9052C9.92938 31.476 11.2394 31.642 12.4965 31.3764L12.6653 31.3407C14.838 30.8816 16.5156 29.1514 16.9074 26.9656V26.9656V26.9656C16.9929 26.4888 16.9774 25.9994 16.8618 25.529L16.791 25.2405C16.6118 24.5107 16.2659 23.8324 15.7804 23.2588L15.7407 23.2119M25.5926 8.88728C27.1481 7.68205 30.7778 4.98235 32.8519 3.82534C34.1422 3.10551 35.4995 3.28135 36.5491 3.69116C37.6181 4.10856 38.5334 4.84212 39.5211 5.42651L40.9631 6.2797C42.7907 7.361 44.3471 8.84555 45.5134 10.62L45.8533 11.1371C46.3437 11.8833 46.9364 12.557 47.614 13.1385L48.7405 14.1053C49.5351 14.7872 50.094 15.7028 50.3375 16.7213V16.7213C50.7478 18.4381 50.2167 20.2438 48.9421 21.465L47.3704 22.9709M25.5926 8.88728V8.88728C24.7547 11.0685 24.7036 13.4737 25.448 15.6886L25.5926 16.1186M25.5926 8.88728V8.88728C24.9597 8.2146 23.995 7.96839 23.1171 8.25547L21.1852 8.88728M15.7407 23.2119V23.2119C15.9132 23.0516 16.1002 22.9077 16.2994 22.782L16.5391 22.6308C17.5419 21.9983 18.7033 21.6626 19.8889 21.6626V21.6626M15.7407 23.2119V23.2119C14.0938 21.8338 11.9305 21.2367 9.80981 21.5748L9.25926 21.6626M13.6667 31.1291C14.1852 30.2022 16.6731 32.1378 19.8889 32.9917C21.3436 33.378 22.8739 33.4382 24.2148 33.3764C26.4388 33.2738 28.4312 32.0045 29.7943 30.2443L31.5396 27.9905C32.0403 27.344 32.8119 26.9656 33.6296 26.9656V26.9656M33.6296 26.9656H38.037M33.6296 26.9656L30.515 30.3069C30.3458 30.4885 30.2091 30.6979 30.111 30.9259V30.9259C29.6261 32.053 30.1766 33.3571 31.3225 33.7958L32.9883 34.4335C33.4125 34.5959 33.8049 34.8317 34.1474 35.1302L38.2217 38.6799C39.077 39.4251 40.418 38.9893 40.6718 37.8837V37.8837C40.9597 36.6296 39.988 34.472 40.6489 33.3679C41.1757 32.4877 41.8411 31.5233 41.9259 31.1291C42.0751 30.4357 44.4234 30.1654 46.2127 29.7395C47.3364 29.4721 48.0538 28.5217 48.3537 27.4063V27.4063C48.7172 26.0546 48.4766 24.6117 47.6942 23.4512L47.3704 22.9709M47.3704 22.9709L45.2963 21.0425M45.2963 21.0425C44.2593 20.3194 43.1185 19.8789 39.5926 19.4932H35.7037M45.2963 21.0425L41.9259 13.5701" stroke="#3363DC" stroke-width="3"/>
<path d="M59.93 31.8559C58.7513 31.8559 57.7027 31.6392 56.784 31.2059C55.8827 30.7552 55.1807 30.0706 54.678 29.1519C54.1753 28.2332 53.924 27.0719 53.924 25.6679V17.7379H57.512V25.1479C57.512 26.3786 57.7807 27.2886 58.318 27.8779C58.8553 28.4499 59.618 28.7359 60.606 28.7359C61.2993 28.7359 61.9147 28.5886 62.452 28.2939C62.9893 27.9992 63.4053 27.5572 63.7 26.9679C64.012 26.3612 64.168 25.6159 64.168 24.7319V17.7379H67.73V31.6739H64.324V27.8779L64.948 29.0219C64.48 29.9406 63.7953 30.6426 62.894 31.1279C61.9927 31.6132 61.0047 31.8559 59.93 31.8559ZM71.8014 31.6739V17.7379H75.3894V31.6739H71.8014ZM73.5954 15.6059C72.9368 15.6059 72.3908 15.4066 71.9574 15.0079C71.5414 14.5919 71.3334 14.0979 71.3334 13.5259C71.3334 12.9366 71.5414 12.4426 71.9574 12.0439C72.3908 11.6452 72.9368 11.4459 73.5954 11.4459C74.2541 11.4459 74.7914 11.6366 75.2074 12.0179C75.6408 12.3819 75.8574 12.8586 75.8574 13.4479C75.8574 14.0546 75.6494 14.5659 75.2334 14.9819C74.8174 15.3979 74.2714 15.6059 73.5954 15.6059ZM78.378 31.6739V29.4639L86.802 19.3499L87.452 20.5459H78.534V17.7379H90.338V19.9739L81.888 30.0619L81.212 28.8659H90.572V31.6739H78.378ZM93.7209 31.6739V13.4739H96.7889L104.641 26.5779H103.029L110.777 13.4739H113.845L113.871 31.6739H110.361L110.335 18.9339H111.037L104.615 29.6719H102.951L96.3989 18.9339H97.2309V31.6739H93.7209ZM126.795 31.6739V28.8919L126.587 28.2939V23.4059C126.587 22.4872 126.31 21.7766 125.755 21.2739C125.2 20.7539 124.351 20.4939 123.207 20.4939C122.462 20.4939 121.716 20.6152 120.971 20.8579C120.226 21.0832 119.593 21.4039 119.073 21.8199L117.747 19.2719C118.492 18.7172 119.385 18.2926 120.425 17.9979C121.482 17.7032 122.566 17.5559 123.675 17.5559C125.738 17.5559 127.332 18.0499 128.459 19.0379C129.603 20.0259 130.175 21.5426 130.175 23.5879V31.6739H126.795ZM122.479 31.8559C121.422 31.8559 120.503 31.6826 119.723 31.3359C118.943 30.9719 118.336 30.4692 117.903 29.8279C117.487 29.1866 117.279 28.4672 117.279 27.6699C117.279 26.8726 117.47 26.1619 117.851 25.5379C118.25 24.9139 118.882 24.4199 119.749 24.0559C120.616 23.6919 121.751 23.5099 123.155 23.5099H127.055V25.7719H123.467C122.427 25.7719 121.716 25.9452 121.335 26.2919C120.971 26.6212 120.789 27.0372 120.789 27.5399C120.789 28.0946 121.006 28.5366 121.439 28.8659C121.89 29.1952 122.505 29.3599 123.285 29.3599C124.03 29.3599 124.698 29.1866 125.287 28.8399C125.894 28.4932 126.327 27.9819 126.587 27.3059L127.159 29.2299C126.864 30.0792 126.318 30.7292 125.521 31.1799C124.724 31.6306 123.71 31.8559 122.479 31.8559ZM138.607 31.8559C137.429 31.8559 136.293 31.7086 135.201 31.4139C134.127 31.1192 133.277 30.7552 132.653 30.3219L133.927 27.6959C134.551 28.0946 135.297 28.4239 136.163 28.6839C137.047 28.9266 137.923 29.0479 138.789 29.0479C139.777 29.0479 140.479 28.9179 140.895 28.6579C141.329 28.3979 141.545 28.0512 141.545 27.6179C141.545 27.2539 141.389 26.9852 141.077 26.8119C140.783 26.6212 140.384 26.4739 139.881 26.3699C139.379 26.2659 138.824 26.1792 138.217 26.1099C137.611 26.0232 136.995 25.9019 136.371 25.7459C135.765 25.5899 135.21 25.3732 134.707 25.0959C134.205 24.8012 133.797 24.4112 133.485 23.9259C133.173 23.4232 133.017 22.7732 133.017 21.9759C133.017 21.0919 133.269 20.3206 133.771 19.6619C134.291 19.0032 135.011 18.4919 135.929 18.1279C136.865 17.7466 137.983 17.5559 139.283 17.5559C140.237 17.5559 141.19 17.6686 142.143 17.8939C143.114 18.1019 143.92 18.3966 144.561 18.7779L143.261 21.4299C142.603 21.0312 141.935 20.7626 141.259 20.6239C140.583 20.4679 139.925 20.3899 139.283 20.3899C138.33 20.3899 137.619 20.5286 137.151 20.8059C136.701 21.0659 136.475 21.4039 136.475 21.8199C136.475 22.2012 136.631 22.4959 136.943 22.7039C137.255 22.8946 137.663 23.0506 138.165 23.1719C138.668 23.2759 139.223 23.3712 139.829 23.4579C140.436 23.5446 141.043 23.6659 141.649 23.8219C142.256 23.9606 142.811 24.1686 143.313 24.4459C143.816 24.7232 144.223 25.1132 144.535 25.6159C144.847 26.1012 145.003 26.7339 145.003 27.5139C145.003 28.3806 144.743 29.1432 144.223 29.8019C143.721 30.4432 142.993 30.9459 142.039 31.3099C141.086 31.6739 139.942 31.8559 138.607 31.8559ZM153.153 31.8559C151.576 31.8559 150.354 31.4572 149.487 30.6599C148.621 29.8452 148.187 28.6406 148.187 27.0459V14.6699H151.749V26.9679C151.749 27.6092 151.914 28.1032 152.243 28.4499C152.573 28.7966 153.032 28.9699 153.621 28.9699C154.297 28.9699 154.878 28.7879 155.363 28.4239L156.351 30.9719C155.953 31.2666 155.467 31.4919 154.895 31.6479C154.323 31.7866 153.743 31.8559 153.153 31.8559ZM145.951 20.7539V17.9459H155.389V20.7539H145.951ZM165.116 31.8559C163.556 31.8559 162.187 31.5526 161.008 30.9459C159.847 30.3219 158.937 29.4726 158.278 28.3979C157.637 27.3232 157.316 26.0926 157.316 24.7059C157.316 23.3192 157.628 22.0886 158.252 21.0139C158.894 19.9392 159.76 19.0986 160.852 18.4919C161.962 17.8679 163.218 17.5559 164.622 17.5559C165.974 17.5559 167.188 17.8506 168.262 18.4399C169.354 19.0292 170.204 19.8699 170.81 20.9619C171.434 22.0366 171.746 23.3106 171.746 24.7839C171.746 24.9226 171.738 25.0872 171.72 25.2779C171.72 25.4686 171.712 25.6419 171.694 25.7979H160.202V23.5619H169.796L168.392 24.2379C168.41 23.4752 168.254 22.8079 167.924 22.2359C167.612 21.6466 167.17 21.1872 166.598 20.8579C166.026 20.5286 165.368 20.3639 164.622 20.3639C163.877 20.3639 163.218 20.5286 162.646 20.8579C162.074 21.1872 161.624 21.6466 161.294 22.2359C160.982 22.8252 160.826 23.5186 160.826 24.3159V24.8619C160.826 25.6766 161.008 26.3872 161.372 26.9939C161.736 27.6006 162.248 28.0772 162.906 28.4239C163.582 28.7532 164.354 28.9179 165.22 28.9179C165.983 28.9179 166.659 28.7966 167.248 28.5539C167.855 28.3112 168.401 27.9472 168.886 27.4619L170.81 29.5939C170.169 30.3392 169.372 30.9026 168.418 31.2839C167.465 31.6652 166.364 31.8559 165.116 31.8559ZM174.71 31.6739V17.7379H178.116V21.6119L177.7 20.4939C178.098 19.5406 178.748 18.8126 179.65 18.3099C180.568 17.8072 181.686 17.5559 183.004 17.5559V20.9359C182.848 20.9012 182.709 20.8839 182.588 20.8839C182.466 20.8666 182.336 20.8579 182.198 20.8579C181.019 20.8579 180.074 21.2046 179.364 21.8979C178.653 22.5739 178.298 23.6052 178.298 24.9919V31.6739H174.71Z" fill="#3363DC"/>
</svg>
